<svg width="19" height="23" viewBox="0 0 19 23" fill="none" xmlns="http://www.w3.org/2000/svg">
<path fill-rule="evenodd" clip-rule="evenodd" d="M17.1684 6.13466C17.1684 5.27553 16.472 4.5791 15.6129 4.5791V3.0791C17.3004 3.0791 18.6684 4.44715 18.6684 6.13466V18.9679C18.6684 20.6555 17.3004 22.0235 15.6129 22.0235H6.44619C4.75865 22.0235 3.39062 20.6555 3.39062 18.9679H4.89062C4.89062 19.8271 5.58708 20.5235 6.44619 20.5235H15.6129C16.472 20.5235 17.1684 19.8271 17.1684 18.9679V6.13466Z" fill="currentColor"/>
<path fill-rule="evenodd" clip-rule="evenodd" d="M0.332031 3.079C0.332031 1.39145 1.70006 0.0234375 3.38759 0.0234375H12.5543C14.2418 0.0234375 15.6098 1.39148 15.6098 3.079V15.9123C15.6098 17.5998 14.2418 18.9678 12.5543 18.9678H3.38759C1.70008 18.9678 0.332031 17.5998 0.332031 15.9123V3.079ZM3.38759 1.52344C2.52848 1.52344 1.83203 2.21988 1.83203 3.079V15.9123C1.83203 16.7714 2.52846 17.4678 3.38759 17.4678H12.5543C13.4134 17.4678 14.1098 16.7714 14.1098 15.9123V3.079C14.1098 2.21986 13.4134 1.52344 12.5543 1.52344H3.38759Z" fill="currentColor"/>
</svg>