<svg width="21" height="20" viewBox="0 0 21 20" fill="none" xmlns="http://www.w3.org/2000/svg">
<path d="M8.36079 0.833333C8.36079 0.61232 8.44858 0.400358 8.60486 0.244078C8.76114 0.0877973 8.97311 0 9.19412 0H11.9719C12.1929 0 12.4049 0.0877973 12.5612 0.244078C12.7174 0.400358 12.8052 0.61232 12.8052 0.833333C12.8052 1.05435 12.7174 1.26631 12.5612 1.42259C12.4049 1.57887 12.1929 1.66667 11.9719 1.66667H9.19412C8.97311 1.66667 8.76114 1.57887 8.60486 1.42259C8.44858 1.26631 8.36079 1.05435 8.36079 0.833333ZM16.9719 1.66667C16.7509 1.66667 16.5389 1.57887 16.3826 1.42259C16.2264 1.26631 16.1386 1.05435 16.1386 0.833333C16.1386 0.61232 16.2264 0.400358 16.3826 0.244078C16.5389 0.0877973 16.7509 0 16.9719 0C17.9296 0 18.8481 0.380455 19.5253 1.05767C20.2026 1.73488 20.583 2.65338 20.583 3.61111C20.583 3.83212 20.4952 4.04409 20.3389 4.20037C20.1827 4.35665 19.9707 4.44444 19.7497 4.44444C19.5287 4.44444 19.3167 4.35665 19.1604 4.20037C19.0041 4.04409 18.9163 3.83212 18.9163 3.61111C18.9163 3.09541 18.7115 2.60084 18.3468 2.23618C17.9822 1.87153 17.4876 1.66667 16.9719 1.66667ZM4.19412 0C4.41513 0 4.62709 0.0877973 4.78337 0.244078C4.93966 0.400358 5.02745 0.61232 5.02745 0.833333C5.02745 1.05435 4.93966 1.26631 4.78337 1.42259C4.62709 1.57887 4.41513 1.66667 4.19412 1.66667C3.67842 1.66667 3.18384 1.87153 2.81919 2.23618C2.45454 2.60084 2.24967 3.09541 2.24967 3.61111C2.24967 3.83212 2.16188 4.04409 2.0056 4.20037C1.84932 4.35665 1.63735 4.44444 1.41634 4.44444C1.19533 4.44444 0.983366 4.35665 0.827085 4.20037C0.670805 4.04409 0.583008 3.83212 0.583008 3.61111C0.583008 2.65338 0.963463 1.73488 1.64068 1.05767C2.31789 0.380455 3.23639 0 4.19412 0ZM1.41634 15.5556C1.19533 15.5556 0.983366 15.6434 0.827085 15.7996C0.670805 15.9559 0.583008 16.1679 0.583008 16.3889C0.583008 17.3466 0.963463 18.2651 1.64068 18.9423C2.31789 19.6195 3.23639 20 4.19412 20C4.41513 20 4.62709 19.9122 4.78337 19.7559C4.93966 19.5996 5.02745 19.3877 5.02745 19.1667C5.02745 18.9457 4.93966 18.7337 4.78337 18.5774C4.62709 18.4211 4.41513 18.3333 4.19412 18.3333C3.67842 18.3333 3.18384 18.1285 2.81919 17.7638C2.45454 17.3992 2.24967 16.9046 2.24967 16.3889C2.24967 16.1679 2.16188 15.9559 2.0056 15.7996C1.84932 15.6434 1.63735 15.5556 1.41634 15.5556ZM9.19412 18.3333C8.97311 18.3333 8.76114 18.4211 8.60486 18.5774C8.44858 18.7337 8.36079 18.9457 8.36079 19.1667C8.36079 19.3877 8.44858 19.5996 8.60486 19.7559C8.76114 19.9122 8.97311 20 9.19412 20H11.9719C12.1929 20 12.4049 19.9122 12.5612 19.7559C12.7174 19.5996 12.8052 19.3877 12.8052 19.1667C12.8052 18.9457 12.7174 18.7337 12.5612 18.5774C12.4049 18.4211 12.1929 18.3333 11.9719 18.3333H9.19412ZM16.9719 18.3333C16.7509 18.3333 16.5389 18.4211 16.3826 18.5774C16.2264 18.7337 16.1386 18.9457 16.1386 19.1667C16.1386 19.3877 16.2264 19.5996 16.3826 19.7559C16.5389 19.9122 16.7509 20 16.9719 20C17.9296 20 18.8481 19.6195 19.5253 18.9423C20.2026 18.2651 20.583 17.3466 20.583 16.3889C20.583 16.1679 20.4952 15.9559 20.3389 15.7996C20.1827 15.6434 19.9707 15.5556 19.7497 15.5556C19.5287 15.5556 19.3167 15.6434 19.1604 15.7996C19.0041 15.9559 18.9163 16.1679 18.9163 16.3889C18.9163 16.9046 18.7115 17.3992 18.3468 17.7638C17.9822 18.1285 17.4876 18.3333 16.9719 18.3333ZM19.7497 7.77778C19.9707 7.77778 20.1827 7.86558 20.3389 8.02186C20.4952 8.17814 20.583 8.3901 20.583 8.61111V11.3889C20.583 11.6099 20.4952 11.8219 20.3389 11.9781C20.1827 12.1344 19.9707 12.2222 19.7497 12.2222C19.5287 12.2222 19.3167 12.1344 19.1604 11.9781C19.0041 11.8219 18.9163 11.6099 18.9163 11.3889V8.61111C18.9163 8.3901 19.0041 8.17814 19.1604 8.02186C19.3167 7.86558 19.5287 7.77778 19.7497 7.77778ZM0.583008 11.3889C0.583008 11.6099 0.670805 11.8219 0.827085 11.9781C0.983366 12.1344 1.19533 12.2222 1.41634 12.2222C1.63735 12.2222 1.84932 12.1344 2.0056 11.9781C2.16188 11.8219 2.24967 11.6099 2.24967 11.3889V8.61111C2.24967 8.3901 2.16188 8.17814 2.0056 8.02186C1.84932 7.86558 1.63735 7.77778 1.41634 7.77778C1.19533 7.77778 0.983366 7.86558 0.827085 8.02186C0.670805 8.17814 0.583008 8.3901 0.583008 8.61111V11.3889Z" fill="currentColor"/>
<path d="M10.9724 4.36117C10.9724 4.20646 10.911 4.05808 10.8016 3.94869C10.6922 3.83929 10.5438 3.77783 10.3891 3.77783C10.2344 3.77783 10.086 3.83929 9.97663 3.94869C9.86723 4.05808 9.80577 4.20646 9.80577 4.36117V9.22228H4.94466C4.78995 9.22228 4.64158 9.28373 4.53218 9.39313C4.42279 9.50253 4.36133 9.6509 4.36133 9.80561C4.36133 9.96032 4.42279 10.1087 4.53218 10.2181C4.64158 10.3275 4.78995 10.3889 4.94466 10.3889H9.80577V15.2501C9.80577 15.4048 9.86723 15.5531 9.97663 15.6625C10.086 15.7719 10.2344 15.8334 10.3891 15.8334C10.5438 15.8334 10.6922 15.7719 10.8016 15.6625C10.911 15.5531 10.9724 15.4048 10.9724 15.2501V10.3889H15.8336C15.9883 10.3889 16.1366 10.3275 16.246 10.2181C16.3554 10.1087 16.4169 9.96032 16.4169 9.80561C16.4169 9.6509 16.3554 9.50253 16.246 9.39313C16.1366 9.28373 15.9883 9.22228 15.8336 9.22228H10.9724V4.36117Z" fill="currentColor"/>
</svg>
